<?xml version="1.0" encoding="UTF-8" standalone="no"?>
<!DOCTYPE svg PUBLIC "-//W3C//DTD SVG 1.1//EN" "http://www.w3.org/Graphics/SVG/1.1/DTD/svg11.dtd">
<svg width="100%" height="100%" viewBox="0 0 1000 1000" version="1.1" xmlns="http://www.w3.org/2000/svg" xmlns:xlink="http://www.w3.org/1999/xlink" xml:space="preserve" xmlns:serif="http://www.serif.com/" style="fill-rule:evenodd;clip-rule:evenodd;stroke-linejoin:round;stroke-miterlimit:2;">
    <path d="M987,243.399L987,756.601C987,882.658 884.658,985 758.601,985L248.399,985C122.342,985 20,882.658 20,756.601L20,243.399C20,117.342 122.342,15 248.399,15L758.601,15C884.658,15 987,117.342 987,243.399Z" style="fill:rgb(255,124,124);"/>
    <g transform="matrix(1,0,0,1,72.442296,92.53522)">
        <g transform="matrix(0.808744,0,0,0.808744,22.376949,23.715741)">
            <path d="M185.007,825C147.448,825 117,794.552 117,756.993C117,634.748 117,379.252 117,257.007C117,238.97 124.165,221.672 136.919,208.919C149.672,196.165 166.97,189 185.007,189L379.993,189C398.03,189 415.328,196.165 428.081,208.919C440.835,221.672 448,238.97 448,257.007L448,274.088C448,282.286 451.257,290.149 457.054,295.946C462.851,301.743 470.714,305 478.912,305C548.887,305 720.789,305 816.993,305C835.03,305 852.328,312.165 865.081,324.919C877.835,337.672 885,354.97 885,373.007L885,756.993C885,794.552 854.552,825 816.993,825C671.336,825 330.664,825 185.007,825Z" style="fill:white;fill-opacity:0.42;"/>
        </g>
        <g transform="matrix(0.808744,0,0,0.808744,22.376949,-28.85262)">
            <path d="M185.007,825C147.448,825 117,794.552 117,756.993C117,634.748 117,379.252 117,257.007C117,238.97 124.165,221.672 136.919,208.919C149.672,196.165 166.97,189 185.007,189L379.993,189C398.03,189 415.328,196.165 428.081,208.919C440.835,221.672 448,238.97 448,257.007L448,274.088C448,282.286 451.257,290.149 457.054,295.946C462.851,301.743 470.714,305 478.912,305C548.887,305 720.789,305 816.993,305C835.03,305 852.328,312.165 865.081,324.919C877.835,337.672 885,354.97 885,373.007L885,756.993C885,794.552 854.552,825 816.993,825C671.336,825 330.664,825 185.007,825Z" style="fill:white;fill-opacity:0.38;"/>
        </g>
    </g>
    <g transform="matrix(0.46563,0.277949,-0.277949,0.46563,315.24122,163.771593)">
        <path d="M695.904,189.408C646.201,115.196 340.236,229.151 470,431C566.744,581.487 757.163,256.12 884,459C975.355,605.125 673.813,756.553 610,658" style="fill:white;fill-opacity:0.83;"/>
    </g>
</svg>
